<svg width="20" height="17" viewBox="0 0 20 17" fill="none" xmlns="http://www.w3.org/2000/svg">
<path d="M15 1.33838H17C17.5304 1.33838 18.0391 1.54909 18.4142 1.92417C18.7893 2.29924 19 2.80795 19 3.33838V13.3384C19 13.8688 18.7893 14.3775 18.4142 14.7526C18.0391 15.1277 17.5304 15.3384 17 15.3384H15M5 15.3384H3C2.46957 15.3384 1.96086 15.1277 1.58579 14.7526C1.21071 14.3775 1 13.8688 1 13.3384V3.33838C1 2.80795 1.21071 2.29924 1.58579 1.92417C1.96086 1.54909 2.46957 1.33838 3 1.33838H5M6 8.33838C6 9.39924 6.42143 10.4167 7.17157 11.1668C7.92172 11.917 8.93913 12.3384 10 12.3384C11.0609 12.3384 12.0783 11.917 12.8284 11.1668C13.5786 10.4167 14 9.39924 14 8.33838C14 7.27751 13.5786 6.2601 12.8284 5.50995C12.0783 4.75981 11.0609 4.33838 10 4.33838C8.93913 4.33838 7.92172 4.75981 7.17157 5.50995C6.42143 6.2601 6 7.27751 6 8.33838Z" stroke="white" stroke-width="2" stroke-linecap="round" stroke-linejoin="round"/>
</svg>
