<svg width="20" height="21" viewBox="0 0 20 21" fill="none" xmlns="http://www.w3.org/2000/svg">
<path d="M12.647 2.41938C12.6738 2.53012 12.7264 2.63295 12.8005 2.71953C12.8745 2.80611 12.968 2.87399 13.0732 2.91764C13.1785 2.9613 13.2925 2.9795 13.4061 2.97077C13.5197 2.96203 13.6297 2.92661 13.727 2.86738C16.166 1.38238 18.957 4.17238 17.472 6.61138C17.4128 6.70865 17.3773 6.81851 17.3685 6.93205C17.3597 7.0456 17.3778 7.15961 17.4214 7.26483C17.465 7.37006 17.5327 7.46353 17.6192 7.53764C17.7056 7.61176 17.8084 7.66443 17.919 7.69138C20.694 8.36438 20.694 12.3114 17.919 12.9854C17.8083 13.0122 17.7054 13.0648 17.6189 13.1389C17.5323 13.2129 17.4644 13.3064 17.4207 13.4116C17.3771 13.5169 17.3589 13.6309 17.3676 13.7445C17.3764 13.8581 17.4118 13.9681 17.471 14.0654C18.956 16.5044 16.166 19.2954 13.727 17.8104C13.6297 17.7512 13.5199 17.7157 13.4063 17.7069C13.2928 17.6981 13.1788 17.7162 13.0736 17.7598C12.9683 17.8033 12.8749 17.8711 12.8007 17.9576C12.7266 18.044 12.674 18.1467 12.647 18.2574C11.974 21.0324 8.02701 21.0324 7.35301 18.2574C7.32618 18.1467 7.27359 18.0438 7.19953 17.9572C7.12546 17.8707 7.03201 17.8028 6.92677 17.7591C6.82153 17.7155 6.70747 17.6973 6.59387 17.706C6.48027 17.7147 6.37034 17.7502 6.27301 17.8094C3.83401 19.2944 1.04301 16.5044 2.52801 14.0654C2.58724 13.9681 2.62269 13.8583 2.63148 13.7447C2.64028 13.6312 2.62216 13.5172 2.57861 13.4119C2.53506 13.3067 2.4673 13.2132 2.38084 13.1391C2.29438 13.065 2.19165 13.0123 2.08101 12.9854C-0.693994 12.3124 -0.693994 8.36539 2.08101 7.69138C2.19174 7.66456 2.29457 7.61197 2.38115 7.53791C2.46773 7.46384 2.53561 7.37039 2.57926 7.26515C2.62292 7.15991 2.64112 7.04585 2.63239 6.93225C2.62365 6.81865 2.58823 6.70872 2.52901 6.61138C1.04401 4.17238 3.83401 1.38138 6.27301 2.86638C6.37017 2.92606 6.48009 2.96188 6.59376 2.9709C6.70744 2.97992 6.82163 2.96189 6.92699 2.91828C7.03235 2.87467 7.12589 2.80673 7.19993 2.72001C7.27398 2.6333 7.32644 2.53028 7.35301 2.41938C8.02601 -0.355615 11.973 -0.355615 12.647 2.41938ZM10 7.33839C9.20436 7.33839 8.44129 7.65446 7.87869 8.21706C7.31608 8.77967 7.00001 9.54274 7.00001 10.3384C7.00001 11.134 7.31608 11.8971 7.87869 12.4597C8.44129 13.0223 9.20436 13.3384 10 13.3384C10.7957 13.3384 11.5587 13.0223 12.1213 12.4597C12.6839 11.8971 13 11.134 13 10.3384C13 9.54274 12.6839 8.77967 12.1213 8.21706C11.5587 7.65446 10.7957 7.33839 10 7.33839Z" fill="white"/>
</svg>
