<svg width="22" height="22" viewBox="0 0 22 22" fill="none" xmlns="http://www.w3.org/2000/svg">
<path d="M6.0001 8.99985H9.0001V5.99985L5.5001 2.49985C6.61973 1.96513 7.8776 1.79066 9.1005 2.00048C10.3234 2.21029 11.4512 2.79407 12.3285 3.67143C13.2059 4.54878 13.7897 5.67656 13.9995 6.89946C14.2093 8.12235 14.0348 9.38022 13.5001 10.4999L19.5001 16.4999C19.8979 16.8977 20.1214 17.4372 20.1214 17.9999C20.1214 18.5625 19.8979 19.102 19.5001 19.4999C19.1023 19.8977 18.5627 20.1212 18.0001 20.1212C17.4375 20.1212 16.8979 19.8977 16.5001 19.4999L10.5001 13.4999C9.38047 14.0346 8.1226 14.209 6.8997 13.9992C5.6768 13.7894 4.54903 13.2056 3.67167 12.3283C2.79432 11.4509 2.21054 10.3232 2.00072 9.10025C1.7909 7.87735 1.96537 6.61948 2.5001 5.49985L6.0001 8.99985Z" stroke="white" stroke-width="2" stroke-linecap="round" stroke-linejoin="round"/>
</svg>
